PathFileType	4	(X/Y/Z)	Patient4_TMGait_0pt5_02_left_45.trc.trc
DataRate	CameraRate	NumFrames	NumMarkers	Units	OrigDataRate	OrigDataStartFrame	OrigNumFrames
76.086956521739	76.086956521739	4	33	mm	76.086956521739	18	       141
Frame#	Time	Sacral			L.Shoulder			Chest			R.Shoulder			Neck			R.ASIS			L.ASIS			R.Thigh.Superior			R.Thigh.Lateral			R.Thigh.Inferior			R.Patella			L.Thigh.Superior			L.Thigh.Lateral			L.Thigh.Inferior			L.Patella			L.Shank.Superior			L.Shank.Lateral			L.Shank.Inferior			R.Shank.Superior			R.Shank.Lateral			R.Shank.Inferior			R.Heel			R.Midfoot.Superior			R.Midfoot.Lateral			R.Toe			L.Heel			L.Midfoot.Lateral			L.Midfoot.Superior			L.Toe			L.Elbow			L.Wrist			R.Elbow			R.Wrist			
		X1	Y1	Z1	X2	Y2	Z2	X3	Y3	Z3	X4	Y4	Z4	X5	Y5	Z5	X6	Y6	Z6	X7	Y7	Z7	X8	Y8	Z8	X9	Y9	Z9	X10	Y10	Z10	X11	Y11	Z11	X12	Y12	Z12	X13	Y13	Z13	X14	Y14	Z14	X15	Y15	Z15	X16	Y16	Z16	X17	Y17	Z17	X18	Y18	Z18	X19	Y19	Z19	X20	Y20	Z20	X21	Y21	Z21	X22	Y22	Z22	X23	Y23	Z23	X24	Y24	Z24	X25	Y25	Z25	X26	Y26	Z26	X27	Y27	Z27	X28	Y28	Z28	X29	Y29	Z29	X30	Y30	Z30	X31	Y31	Z31	X32	Y32	Z32	X33	Y33	Z33	

18	58.243428571429	664.149050817234	1009.030947972355	538.694590954002	823.499560799844	1435.729813984116	345.071264364308	943.029967415231	1360.288978501258	490.951048640376	883.617982180558	1433.040456967188	675.283345671769	844.662071252367	1493.779961506218	496.030787514778	899.305143247000	942.139183416112	635.306498652049	861.422799768637	957.561545363574	361.638311972433	905.043091072951	731.757658536153	607.593313878814	806.013020227832	634.608911122738	670.127358171129	867.516390139671	571.633198539906	589.093640784321	853.773311324429	487.189110989581	592.570819313433	936.646888916395	773.306132572827	391.702859148404	890.794475895827	648.709224607632	308.831113673095	992.433072937288	587.151246481883	371.564450384122	1020.990373368428	522.238269194967	364.780841682211	1003.928581156348	451.658690887951	352.312161646456	938.200156469716	322.942124599471	297.708362359599	1025.658288326274	222.634263025321	349.938757366928	821.276930915670	402.696519097837	596.701506100837	746.337306901116	300.547565281856	655.169147288105	783.970257295104	206.059735966771	588.374182751636	643.731998375352	43.672310679381	554.253746838026	815.893790259117	96.357766975115	588.678291833818	727.991000519051	36.613300761082	627.851582369724	935.954096436866	42.552337832021	614.225716658753	940.206430214436	44.282708187347	387.034362856666	1012.695300627633	47.718527158457	305.812851742022	1086.201586988323	122.642431650630	324.805221510134	1217.960388854924	89.862877667393	296.546118878912	736.163718616174	1089.760705792986	234.355850786669	778.423397543789	831.395384796131	237.928316021632	1006.785781160834	1113.635807660526	775.425267619598	1227.103143595027	1178.733088675869	675.303253046664	
19	58.256571428571	664.680392076901	1008.244568500607	537.166842371649	823.158221210333	1435.194443843039	343.588867760449	942.838623047982	1359.856376803753	489.371775862222	883.254284020562	1432.303962853791	673.725006906447	844.111599050389	1493.073485820494	494.668308635945	899.813119371529	941.741155496826	634.058502472362	862.070034723293	956.441085474404	360.317492370399	904.068023178534	730.967476437525	606.735804887233	804.113300073978	634.446641460397	669.428749734942	865.048542625318	570.941923537194	588.522506935425	850.437143233186	486.462361485521	592.004286230340	936.766067842246	771.413864458675	390.181509760025	888.743927549859	646.262687013347	308.605422524875	990.887182308597	584.765628380279	370.209959632886	1018.904771345605	520.049805321739	364.116376560112	1002.137795310211	449.522897074300	351.939005143710	936.491475197922	320.425831213592	298.466639750417	1024.673468624214	220.679048501612	350.392122247735	817.319909670545	402.271313679321	596.300057752378	741.584356676528	300.758640779255	655.012503620826	778.400242241044	205.877709207748	588.265898709902	637.144864224518	43.791151104110	554.343983584493	809.370029320672	96.305974663867	588.766760088002	721.398195908050	36.609005939897	627.885051355150	929.335143840194	42.290933189500	614.296496816481	939.560631423980	43.347485244328	388.709282321640	1011.748070812056	45.849587112304	307.227777182500	1085.880483762283	120.060063809629	325.670624444487	1217.186314213017	85.993123083534	297.149974618366	731.361515301347	1090.995292109945	232.398180292860	764.412948560655	831.347606961837	238.768963447900	1011.327422144345	1114.828723344016	771.982371074853	1228.632357181919	1185.315291559545	669.366791420703	
20	58.269714285714	665.358601471904	1007.381994260227	535.423664463056	822.890905747769	1434.582826354924	341.862855711156	942.715500649790	1359.416592125972	487.604074135418	882.858684070933	1431.567861101340	671.960674476641	843.583660072080	1492.329206022761	493.047930626558	900.422211429014	941.274363974257	632.652661748728	862.905550569684	955.270206405753	358.843716298374	903.315922333696	730.122139505993	605.710038970413	802.533084331103	634.209180014269	668.561390493510	862.916758169831	570.206583516204	587.749872084123	847.409715997925	485.663290822119	591.209324409797	937.103638407879	769.534667141449	388.552890695175	886.934677664767	643.815880249077	308.413229791313	989.616346938057	582.490019282786	368.896573211152	1016.976055094242	517.708922430709	363.502478047478	1000.225802682596	447.087557035429	351.667220131502	934.030600722277	317.930194757139	299.353522745270	1022.383787530984	218.322104276480	351.030818146996	813.650055272254	401.741173374561	595.738470010147	737.079328993024	300.954983701568	654.773461166779	772.947891908932	205.642837893338	588.083533520944	630.565964302687	43.924184780951	554.450696846965	802.852806730231	96.256315939484	588.861317106916	714.813517538611	36.600455074036	627.927294193834	922.720703208444	42.016943893377	614.365503236557	936.640084186079	42.492277027269	390.378687862923	1008.617446534175	43.927957071679	308.689566052403	1083.720434549546	116.984478744358	326.882583339659	1214.461378706212	81.031523283978	298.115502285343	726.558207439847	1092.180568760147	230.475015921022	751.173645170703	831.695206379251	239.729543570459	1015.121311870382	1115.852492816764	768.739326143985	1229.689378339604	1190.870061141135	663.917514833474	
21	58.282857142857	666.165610940480	1006.469073466969	533.479918791887	822.709342781292	1433.910810805130	339.895320336653	942.671917469964	1358.977471793333	485.647144186411	882.458749497260	1430.852240815590	669.991793391193	843.105718582345	1491.567424776123	491.165093270755	901.112562343684	940.740717491421	631.079935275478	863.901699680057	954.086079927626	357.216241426438	902.784111025111	729.226236369111	604.522802540408	801.253289905388	633.899619084483	667.516297535087	861.109169019231	569.423312565377	586.778985422981	844.692437285329	484.786716961715	590.187513521532	937.606514599229	767.686462397166	386.835218374870	885.376376567649	641.450750787934	308.202962351527	988.579024675741	580.361303687182	367.655650103511	1015.156436530475	515.279208123103	362.976126751888	998.225923276796	444.453750332360	351.485721117458	931.017600127567	315.492374396091	300.268921926658	1019.055215204824	215.672584910392	351.812432128179	810.259775801029	401.108671588732	595.013082497471	732.813562179998	301.141120747154	654.441406132540	767.610887453589	205.360851596520	587.826390714395	623.997696607792	44.090590247148	554.578327873400	796.346030490112	96.214222297019	588.963675441434	708.239250442818	36.597358867726	627.983191403339	916.116610209759	41.729773247807	614.436459518705	931.886090509805	41.676555272017	391.923311448959	1003.773500805228	42.035279266262	310.104439779672	1080.064508545405	113.618166289345	328.396158869988	1210.200722902526	75.395301565433	299.445521929865	721.795909828400	1093.314291353281	228.604598792251	738.710763803711	832.349940744784	240.745332781058	1018.159589701624	1116.659560029483	765.730070984100	1230.353492526285	1195.332925423536	658.995065521563	
